<svg width="885" height="511" viewBox="0 0 885 511" fill="none" xmlns="http://www.w3.org/2000/svg">
<path d="M1 26C1 11.6406 12.6406 0 27 0H865C876.046 0 885 8.95431 885 20V490C885 501.046 876.046 510 865 510H27C12.6406 510 1 498.359 1 484V26Z" fill="#F8F8F8"/>
<path fill-rule="evenodd" clip-rule="evenodd" d="M0 21C0 9.9543 8.9543 1 20 1H347C347 1 296 153 337 273C378 393 337 511 337 511H20C8.9543 511 0 502.046 0 491V21Z" fill="#2D415E"/>
<mask id="mask0_1871_1609" style="mask-type:alpha" maskUnits="userSpaceOnUse" x="0" y="1" width="356" height="510">
<path fill-rule="evenodd" clip-rule="evenodd" d="M0 21C0 9.9543 8.9543 1 20 1H347C347 1 296 153 337 273C378 393 337 511 337 511H20C8.9543 511 0 502.046 0 491V21Z" fill="white"/>
</mask>
<g mask="url(#mask0_1871_1609)">
<ellipse opacity="0.0312267" cx="81.4409" cy="447.5" rx="172.689" ry="172.5" fill="url(#paint0_linear_1871_1609)"/>
<circle opacity="0.0312267" cx="308.5" cy="358.5" r="239.5" fill="url(#paint1_linear_1871_1609)"/>
</g>
<defs>
<linearGradient id="paint0_linear_1871_1609" x1="-91.2482" y1="275" x2="-91.2482" y2="620" gradientUnits="userSpaceOnUse">
<stop stop-color="white"/>
<stop offset="1" stop-color="white" stop-opacity="0.01"/>
</linearGradient>
<linearGradient id="paint1_linear_1871_1609" x1="69" y1="119" x2="69" y2="598" gradientUnits="userSpaceOnUse">
<stop stop-color="white"/>
<stop offset="1" stop-color="white" stop-opacity="0.01"/>
</linearGradient>
</defs>
</svg>
